<svg xmlns="http://www.w3.org/2000/svg" viewBox="0 0 600 680">
<defs><linearGradient id="g" x1="0" x2="1" y1="0" y2="1"><stop stop-color="#ffd400"/><stop offset="1" stop-color="#f7b900"/></linearGradient><filter id="s"><feDropShadow dx="0" dy="20" stdDeviation="18" flood-opacity=".35"/></filter><pattern id="p" width="36" height="36" patternUnits="userSpaceOnUse"><path d="M0 18h36M18 0v36M0 0l36 36M36 0L0 36" stroke="#b89300" stroke-width="2" opacity=".18"/></pattern></defs>
<path filter="url(#s)" d="M130 90 235 35h130l105 55 88 82-72 96-46-24v360H160V244l-46 24-72-96 88-82z" fill="url(#g)"/>
<path d="M130 90 235 35h130l105 55 88 82-72 96-46-24v360H160V244l-46 24-72-96 88-82z" fill="url(#p)"/>
<path d="M231 38c12 55 126 55 138 0" fill="none" stroke="#ffd400" stroke-width="28" stroke-linecap="round"/>
<rect x="392" y="170" width="72" height="50" rx="3" fill="#169b62"/><path d="M428 176 459 195 428 214 397 195z" fill="#ffdf00"/><circle cx="428" cy="195" r="11" fill="#002776"/><path d="M417 193c7 0 17 2 24 6" stroke="#fff" stroke-width="2"/>
<text x="300" y="315" text-anchor="middle" font-family="Arial Black, Montserrat, sans-serif" font-size="70" fill="#005c38">BRASIL</text>
<text x="300" y="505" text-anchor="middle" font-family="Arial Black, Montserrat, sans-serif" font-size="185" fill="none" stroke="#005c38" stroke-width="12">10</text>
<text x="300" y="505" text-anchor="middle" font-family="Arial Black, Montserrat, sans-serif" font-size="185" fill="#005c38" opacity=".22">10</text>
</svg>