<svg xmlns="http://www.w3.org/2000/svg" viewBox="0 0 600 680"><defs><linearGradient id="g" x1="0" x2="1"><stop stop-color="#003a26"/><stop offset="1" stop-color="#006439"/></linearGradient><filter id="s"><feDropShadow dx="0" dy="20" stdDeviation="18" flood-opacity=".35"/></filter></defs><path filter="url(#s)" d="M122 145c45-80 92-120 178-120s133 40 178 120l77 67-67 96-48-32v352H160V276l-48 32-67-96 77-67z" fill="url(#g)"/><path d="M230 66c42 80 98 80 140 0 45 18 72 48 82 94-88 44-216 44-304 0 10-46 37-76 82-94z" fill="#002918"/><path d="M265 152c-8 70-11 115-11 180M335 152c8 70 11 115 11 180" stroke="#ffd400" stroke-width="9" stroke-linecap="round"/><text x="300" y="330" text-anchor="middle" font-family="Arial Black, Montserrat" font-size="86" fill="#ffd400">BRASIL</text><text x="300" y="450" text-anchor="middle" font-family="Arial Black, Montserrat" font-size="130" fill="#ffd400">10</text><rect x="465" y="230" width="72" height="50" rx="3" fill="#169b62"/><path d="M501 236 532 255 501 274 470 255z" fill="#ffdf00"/><circle cx="501" cy="255" r="11" fill="#002776"/><path d="M490 253c7 0 17 2 24 6" stroke="#fff" stroke-width="2"/></svg>